<mxfile host="app.diagrams.net" modified="2022-11-27T20:22:51.091Z" agent="5.0 (Macintosh; Intel Mac OS X 10_15_7) AppleWebKit/537.36 (KHTML, like Gecko) Chrome/107.0.0.0 Safari/537.36" etag="Zv90MdeHZIIcpsfCK3M0" version="20.6.0" type="github">
  <diagram name="Page-1" id="2cc2dc42-3aac-f2a9-1cec-7a8b7cbee084">
    <mxGraphModel dx="2636" dy="1211" grid="1" gridSize="10" guides="1" tooltips="1" connect="1" arrows="1" fold="1" page="1" pageScale="1" pageWidth="1100" pageHeight="850" background="none" math="0" shadow="0">
      <root>
        <mxCell id="0" />
        <mxCell id="1" parent="0" />
        <mxCell id="7026571954dc6520-1" value="" style="strokeWidth=1;shadow=0;dashed=0;align=center;html=1;shape=mxgraph.mockup.containers.browserWindow;rSize=0;strokeColor=#666666;mainText=,;recursiveResize=0;rounded=0;labelBackgroundColor=none;fontFamily=Verdana;fontSize=12" parent="1" vertex="1">
          <mxGeometry x="30" y="20" width="1050" height="1140" as="geometry" />
        </mxCell>
        <mxCell id="7026571954dc6520-2" value="Travel&amp;nbsp;" style="strokeWidth=1;shadow=0;dashed=0;align=center;html=1;shape=mxgraph.mockup.containers.anchor;fontSize=17;fontColor=#666666;align=left;" parent="7026571954dc6520-1" vertex="1">
          <mxGeometry x="60" y="12" width="110" height="26" as="geometry" />
        </mxCell>
        <mxCell id="7026571954dc6520-3" value="https://www.Travel.com" style="strokeWidth=1;shadow=0;dashed=0;align=center;html=1;shape=mxgraph.mockup.containers.anchor;rSize=0;fontSize=17;fontColor=#666666;align=left;" parent="7026571954dc6520-1" vertex="1">
          <mxGeometry x="130" y="60" width="250" height="26" as="geometry" />
        </mxCell>
        <mxCell id="7026571954dc6520-4" value="LOGO&lt;br style=&quot;font-size: 16px;&quot;&gt;&lt;div style=&quot;font-size: 16px;&quot;&gt;&lt;span style=&quot;background-color: initial; font-size: 16px;&quot;&gt;Tagline&lt;/span&gt;&lt;/div&gt;" style="text;html=1;points=[];align=center;verticalAlign=top;spacingTop=-4;fontSize=16;fontFamily=Verdana" parent="7026571954dc6520-1" vertex="1">
          <mxGeometry x="355" y="117" width="340" height="50" as="geometry" />
        </mxCell>
        <mxCell id="7026571954dc6520-15" value="" style="verticalLabelPosition=bottom;shadow=0;dashed=0;align=center;html=1;verticalAlign=top;strokeWidth=1;shape=mxgraph.mockup.markup.line;strokeColor=#999999;rounded=0;labelBackgroundColor=none;fillColor=#ffffff;fontFamily=Verdana;fontSize=12;fontColor=#000000;" parent="7026571954dc6520-1" vertex="1">
          <mxGeometry y="160" width="1050" height="20" as="geometry" />
        </mxCell>
        <mxCell id="7026571954dc6520-21" value="" style="verticalLabelPosition=bottom;shadow=0;dashed=0;align=center;html=1;verticalAlign=top;strokeWidth=1;shape=mxgraph.mockup.markup.line;strokeColor=#999999;rounded=0;labelBackgroundColor=none;fillColor=#ffffff;fontFamily=Verdana;fontSize=12;fontColor=#000000;" parent="7026571954dc6520-1" vertex="1">
          <mxGeometry y="195" width="1050" height="20" as="geometry" />
        </mxCell>
        <mxCell id="7026571954dc6520-22" value="" style="verticalLabelPosition=bottom;shadow=0;dashed=0;align=center;html=1;verticalAlign=top;strokeWidth=1;shape=mxgraph.mockup.graphics.simpleIcon;strokeColor=#999999;fillColor=#ffffff;rounded=0;labelBackgroundColor=none;fontFamily=Verdana;fontSize=12;fontColor=#000000;" parent="7026571954dc6520-1" vertex="1">
          <mxGeometry x="30" y="650" width="360" height="220" as="geometry" />
        </mxCell>
        <mxCell id="Y_7jnwVfbYOWg52Jq8---1" value="Navigation" style="text;html=1;points=[];align=center;verticalAlign=top;spacingTop=-4;fontSize=16;fontFamily=Verdana" vertex="1" parent="7026571954dc6520-1">
          <mxGeometry x="355" y="175" width="340" height="50" as="geometry" />
        </mxCell>
        <mxCell id="Y_7jnwVfbYOWg52Jq8---6" value="" style="verticalLabelPosition=bottom;shadow=0;dashed=0;align=center;html=1;verticalAlign=top;strokeWidth=1;shape=mxgraph.mockup.graphics.simpleIcon;strokeColor=#999999;fillColor=#ffffff;rounded=0;labelBackgroundColor=none;fontFamily=Verdana;fontSize=12;fontColor=#000000;" vertex="1" parent="7026571954dc6520-1">
          <mxGeometry x="440" y="650" width="300" height="220" as="geometry" />
        </mxCell>
        <mxCell id="Y_7jnwVfbYOWg52Jq8---54" value="" style="sketch=0;outlineConnect=0;fontColor=#232F3E;gradientColor=none;fillColor=#232F3D;strokeColor=none;dashed=0;verticalLabelPosition=bottom;verticalAlign=top;align=center;html=1;fontSize=12;fontStyle=0;aspect=fixed;pointerEvents=1;shape=mxgraph.aws4.camera2;" vertex="1" parent="Y_7jnwVfbYOWg52Jq8---6">
          <mxGeometry x="110" y="79" width="78" height="62" as="geometry" />
        </mxCell>
        <mxCell id="Y_7jnwVfbYOWg52Jq8---5" value="" style="verticalLabelPosition=bottom;shadow=0;dashed=0;align=center;html=1;verticalAlign=top;strokeWidth=1;shape=mxgraph.mockup.graphics.simpleIcon;strokeColor=#999999;fillColor=#ffffff;rounded=0;labelBackgroundColor=none;fontFamily=Verdana;fontSize=12;fontColor=#000000;" vertex="1" parent="7026571954dc6520-1">
          <mxGeometry x="790" y="650" width="230" height="220" as="geometry" />
        </mxCell>
        <mxCell id="Y_7jnwVfbYOWg52Jq8---8" value="&lt;div style=&quot;text-align: justify;&quot;&gt;Heading&lt;/div&gt;" style="text;whiteSpace=wrap;html=1;fontSize=16;" vertex="1" parent="7026571954dc6520-1">
          <mxGeometry x="10" y="403" width="560" height="100" as="geometry" />
        </mxCell>
        <mxCell id="Y_7jnwVfbYOWg52Jq8---14" style="edgeStyle=orthogonalEdgeStyle;rounded=0;orthogonalLoop=1;jettySize=auto;html=1;exitX=0.5;exitY=1;exitDx=0;exitDy=0;fontSize=16;" edge="1" parent="7026571954dc6520-1">
          <mxGeometry relative="1" as="geometry">
            <mxPoint x="195" y="640" as="sourcePoint" />
            <mxPoint x="195" y="640" as="targetPoint" />
          </mxGeometry>
        </mxCell>
        <mxCell id="Y_7jnwVfbYOWg52Jq8---20" value="" style="triangle;whiteSpace=wrap;html=1;fontSize=16;" vertex="1" parent="7026571954dc6520-1">
          <mxGeometry x="770" y="740" width="10" height="20" as="geometry" />
        </mxCell>
        <mxCell id="Y_7jnwVfbYOWg52Jq8---21" value="" style="triangle;whiteSpace=wrap;html=1;fontSize=16;" vertex="1" parent="7026571954dc6520-1">
          <mxGeometry x="410" y="740" width="10" height="20" as="geometry" />
        </mxCell>
        <mxCell id="Y_7jnwVfbYOWg52Jq8---36" value="" style="sketch=0;outlineConnect=0;fontColor=#232F3E;gradientColor=none;fillColor=#232F3D;strokeColor=none;dashed=0;verticalLabelPosition=bottom;verticalAlign=top;align=center;html=1;fontSize=12;fontStyle=0;aspect=fixed;pointerEvents=1;shape=mxgraph.aws4.camera2;" vertex="1" parent="7026571954dc6520-1">
          <mxGeometry x="171" y="729" width="78" height="62" as="geometry" />
        </mxCell>
        <mxCell id="Y_7jnwVfbYOWg52Jq8---55" value="" style="sketch=0;outlineConnect=0;fontColor=#232F3E;gradientColor=none;fillColor=#232F3D;strokeColor=none;dashed=0;verticalLabelPosition=bottom;verticalAlign=top;align=center;html=1;fontSize=12;fontStyle=0;aspect=fixed;pointerEvents=1;shape=mxgraph.aws4.camera2;" vertex="1" parent="7026571954dc6520-1">
          <mxGeometry x="870" y="729" width="78" height="62" as="geometry" />
        </mxCell>
        <mxCell id="Y_7jnwVfbYOWg52Jq8---56" value="" style="rounded=1;whiteSpace=wrap;html=1;fontSize=16;" vertex="1" parent="7026571954dc6520-1">
          <mxGeometry x="15" y="930" width="1010" height="110" as="geometry" />
        </mxCell>
        <mxCell id="Y_7jnwVfbYOWg52Jq8---77" value="Contact Form" style="text;html=1;points=[];align=center;verticalAlign=top;spacingTop=-4;fontSize=16;fontFamily=Verdana" vertex="1" parent="7026571954dc6520-1">
          <mxGeometry x="350" y="940" width="340" height="50" as="geometry" />
        </mxCell>
        <mxCell id="Y_7jnwVfbYOWg52Jq8---78" value="&lt;h1&gt;Heading&lt;/h1&gt;&lt;p&gt;Lorem ipsum dolor sit amet, consectetur adipisicing elit, sed do eiusmod tempor incididunt ut labore et dolore magna aliqua.&lt;/p&gt;" style="text;html=1;strokeColor=none;fillColor=none;spacing=5;spacingTop=-20;whiteSpace=wrap;overflow=hidden;rounded=0;fontSize=16;" vertex="1" parent="7026571954dc6520-1">
          <mxGeometry x="20" y="480" width="620" height="330" as="geometry" />
        </mxCell>
        <mxCell id="Y_7jnwVfbYOWg52Jq8---3" value="" style="verticalLabelPosition=bottom;shadow=0;dashed=0;align=center;html=1;verticalAlign=top;strokeWidth=1;shape=mxgraph.mockup.graphics.simpleIcon;strokeColor=#999999;fillColor=#ffffff;rounded=0;labelBackgroundColor=none;fontFamily=Verdana;fontSize=12;fontColor=#000000;" vertex="1" parent="1">
          <mxGeometry x="30" y="225" width="1050" height="255" as="geometry" />
        </mxCell>
        <mxCell id="Y_7jnwVfbYOWg52Jq8---11" value="" style="sketch=0;pointerEvents=1;shadow=0;dashed=0;html=1;strokeColor=none;fillColor=#505050;labelPosition=center;verticalLabelPosition=bottom;verticalAlign=top;outlineConnect=0;align=center;shape=mxgraph.office.concepts.video_play;fontSize=16;" vertex="1" parent="1">
          <mxGeometry x="530" y="332.5" width="50" height="40" as="geometry" />
        </mxCell>
        <mxCell id="Y_7jnwVfbYOWg52Jq8---10" value="Footer" style="text;html=1;points=[];align=center;verticalAlign=top;spacingTop=-4;fontSize=16;fontFamily=Verdana" vertex="1" parent="1">
          <mxGeometry x="385" y="1124" width="340" height="50" as="geometry" />
        </mxCell>
        <mxCell id="Y_7jnwVfbYOWg52Jq8---9" value="" style="verticalLabelPosition=bottom;shadow=0;dashed=0;align=center;html=1;verticalAlign=top;strokeWidth=1;shape=mxgraph.mockup.markup.line;strokeColor=#999999;rounded=0;labelBackgroundColor=none;fillColor=#ffffff;fontFamily=Verdana;fontSize=12;fontColor=#000000;" vertex="1" parent="1">
          <mxGeometry x="30" y="1100" width="1050" height="20" as="geometry" />
        </mxCell>
      </root>
    </mxGraphModel>
  </diagram>
</mxfile>
